<mxfile host="app.diagrams.net" modified="2023-03-27T08:25:33.363Z" agent="Mozilla/5.0 (Macintosh; Intel Mac OS X 10_15_7) AppleWebKit/537.36 (KHTML, like Gecko) Chrome/111.0.0.0 Safari/537.36" etag="U0uwSdgJBL1ERwkjca1t" version="21.1.1" type="github">
  <diagram name="第 1 页" id="Cc1XyHBKtQxPtkfq8Vwh">
    <mxGraphModel dx="1781" dy="689" grid="1" gridSize="10" guides="1" tooltips="1" connect="1" arrows="1" fold="1" page="1" pageScale="1" pageWidth="827" pageHeight="1169" math="0" shadow="0">
      <root>
        <mxCell id="0" />
        <mxCell id="1" parent="0" />
        <mxCell id="VWD--a9w9a9aZKambICp-7" style="edgeStyle=orthogonalEdgeStyle;rounded=0;orthogonalLoop=1;jettySize=auto;html=1;exitX=0.5;exitY=1;exitDx=0;exitDy=0;" parent="1" source="VWD--a9w9a9aZKambICp-1" edge="1">
          <mxGeometry relative="1" as="geometry">
            <mxPoint x="130" y="550" as="targetPoint" />
          </mxGeometry>
        </mxCell>
        <mxCell id="PnGkv1meoWTylXJmhazq-34" style="edgeStyle=orthogonalEdgeStyle;rounded=0;orthogonalLoop=1;jettySize=auto;html=1;exitX=0;exitY=0.5;exitDx=0;exitDy=0;" edge="1" parent="1" source="VWD--a9w9a9aZKambICp-1" target="PnGkv1meoWTylXJmhazq-32">
          <mxGeometry relative="1" as="geometry" />
        </mxCell>
        <mxCell id="VWD--a9w9a9aZKambICp-1" value="petitioncenter" style="rounded=0;whiteSpace=wrap;html=1;" parent="1" vertex="1">
          <mxGeometry x="70" y="370" width="120" height="60" as="geometry" />
        </mxCell>
        <mxCell id="VWD--a9w9a9aZKambICp-2" value="&lt;font style=&quot;font-size: 17px;&quot;&gt;党群信访模块&lt;/font&gt;" style="text;html=1;align=center;verticalAlign=middle;resizable=0;points=[];autosize=1;strokeColor=none;fillColor=none;" parent="1" vertex="1">
          <mxGeometry x="65" y="340" width="130" height="30" as="geometry" />
        </mxCell>
        <mxCell id="VWD--a9w9a9aZKambICp-15" style="edgeStyle=orthogonalEdgeStyle;rounded=0;orthogonalLoop=1;jettySize=auto;html=1;exitX=0;exitY=0.5;exitDx=0;exitDy=0;" parent="1" source="VWD--a9w9a9aZKambICp-3" target="VWD--a9w9a9aZKambICp-1" edge="1">
          <mxGeometry relative="1" as="geometry" />
        </mxCell>
        <mxCell id="VWD--a9w9a9aZKambICp-3" value="协同平台" style="rounded=0;whiteSpace=wrap;html=1;" parent="1" vertex="1">
          <mxGeometry x="560" y="370" width="120" height="60" as="geometry" />
        </mxCell>
        <mxCell id="VWD--a9w9a9aZKambICp-5" value="RPC" style="text;html=1;align=center;verticalAlign=middle;resizable=0;points=[];autosize=1;strokeColor=none;fillColor=none;" parent="1" vertex="1">
          <mxGeometry x="340" y="370" width="50" height="30" as="geometry" />
        </mxCell>
        <mxCell id="VWD--a9w9a9aZKambICp-6" value="拉取信访信息" style="text;html=1;align=center;verticalAlign=middle;resizable=0;points=[];autosize=1;strokeColor=none;fillColor=none;" parent="1" vertex="1">
          <mxGeometry x="270" y="395" width="100" height="30" as="geometry" />
        </mxCell>
        <mxCell id="VWD--a9w9a9aZKambICp-13" style="edgeStyle=orthogonalEdgeStyle;rounded=0;orthogonalLoop=1;jettySize=auto;html=1;exitX=1;exitY=0.5;exitDx=0;exitDy=0;exitPerimeter=0;entryX=0;entryY=0.5;entryDx=0;entryDy=0;" parent="1" source="VWD--a9w9a9aZKambICp-8" target="VWD--a9w9a9aZKambICp-12" edge="1">
          <mxGeometry relative="1" as="geometry" />
        </mxCell>
        <mxCell id="VWD--a9w9a9aZKambICp-8" value="MySQL" style="shape=cylinder3;whiteSpace=wrap;html=1;boundedLbl=1;backgroundOutline=1;size=15;" parent="1" vertex="1">
          <mxGeometry x="100" y="550" width="60" height="80" as="geometry" />
        </mxCell>
        <mxCell id="VWD--a9w9a9aZKambICp-11" value="注册" style="text;html=1;align=center;verticalAlign=middle;resizable=0;points=[];autosize=1;strokeColor=none;fillColor=none;" parent="1" vertex="1">
          <mxGeometry x="-200" y="400" width="50" height="30" as="geometry" />
        </mxCell>
        <mxCell id="VWD--a9w9a9aZKambICp-16" style="edgeStyle=orthogonalEdgeStyle;rounded=0;orthogonalLoop=1;jettySize=auto;html=1;exitX=0;exitY=0.75;exitDx=0;exitDy=0;entryX=1;entryY=1;entryDx=0;entryDy=-15;entryPerimeter=0;" parent="1" source="VWD--a9w9a9aZKambICp-12" target="VWD--a9w9a9aZKambICp-8" edge="1">
          <mxGeometry relative="1" as="geometry" />
        </mxCell>
        <mxCell id="VWD--a9w9a9aZKambICp-12" value="普元流程管理" style="whiteSpace=wrap;html=1;aspect=fixed;" parent="1" vertex="1">
          <mxGeometry x="360" y="550" width="80" height="80" as="geometry" />
        </mxCell>
        <mxCell id="VWD--a9w9a9aZKambICp-14" value="创建流程 \ 处理流程" style="text;html=1;align=center;verticalAlign=middle;resizable=0;points=[];autosize=1;strokeColor=none;fillColor=none;" parent="1" vertex="1">
          <mxGeometry x="185" y="550" width="130" height="30" as="geometry" />
        </mxCell>
        <mxCell id="VWD--a9w9a9aZKambICp-17" value="状态变更（定时任务）" style="text;html=1;align=center;verticalAlign=middle;resizable=0;points=[];autosize=1;strokeColor=none;fillColor=none;" parent="1" vertex="1">
          <mxGeometry x="165" y="620" width="140" height="30" as="geometry" />
        </mxCell>
        <mxCell id="PnGkv1meoWTylXJmhazq-6" style="edgeStyle=orthogonalEdgeStyle;rounded=0;orthogonalLoop=1;jettySize=auto;html=1;entryX=0.5;entryY=0;entryDx=0;entryDy=0;entryPerimeter=0;" edge="1" parent="1" source="PnGkv1meoWTylXJmhazq-2" target="PnGkv1meoWTylXJmhazq-5">
          <mxGeometry relative="1" as="geometry" />
        </mxCell>
        <mxCell id="PnGkv1meoWTylXJmhazq-37" style="edgeStyle=orthogonalEdgeStyle;rounded=0;orthogonalLoop=1;jettySize=auto;html=1;exitX=0;exitY=0.5;exitDx=0;exitDy=0;entryX=1;entryY=0.5;entryDx=0;entryDy=0;" edge="1" parent="1" source="PnGkv1meoWTylXJmhazq-2" target="PnGkv1meoWTylXJmhazq-32">
          <mxGeometry relative="1" as="geometry" />
        </mxCell>
        <mxCell id="PnGkv1meoWTylXJmhazq-2" value="infocenter" style="rounded=0;whiteSpace=wrap;html=1;" vertex="1" parent="1">
          <mxGeometry x="80" y="750" width="120" height="60" as="geometry" />
        </mxCell>
        <mxCell id="PnGkv1meoWTylXJmhazq-8" style="edgeStyle=orthogonalEdgeStyle;rounded=0;orthogonalLoop=1;jettySize=auto;html=1;exitX=1;exitY=0;exitDx=0;exitDy=27.5;exitPerimeter=0;entryX=0;entryY=0.25;entryDx=0;entryDy=0;" edge="1" parent="1" source="PnGkv1meoWTylXJmhazq-5" target="PnGkv1meoWTylXJmhazq-7">
          <mxGeometry relative="1" as="geometry" />
        </mxCell>
        <mxCell id="PnGkv1meoWTylXJmhazq-5" value="MySQL" style="shape=cylinder3;whiteSpace=wrap;html=1;boundedLbl=1;backgroundOutline=1;size=15;" vertex="1" parent="1">
          <mxGeometry x="110" y="900" width="60" height="80" as="geometry" />
        </mxCell>
        <mxCell id="PnGkv1meoWTylXJmhazq-10" style="edgeStyle=orthogonalEdgeStyle;rounded=0;orthogonalLoop=1;jettySize=auto;html=1;exitX=0;exitY=0.5;exitDx=0;exitDy=0;entryX=1;entryY=0;entryDx=0;entryDy=52.5;entryPerimeter=0;" edge="1" parent="1" source="PnGkv1meoWTylXJmhazq-7" target="PnGkv1meoWTylXJmhazq-5">
          <mxGeometry relative="1" as="geometry" />
        </mxCell>
        <mxCell id="PnGkv1meoWTylXJmhazq-7" value="普元流程管理" style="whiteSpace=wrap;html=1;aspect=fixed;" vertex="1" parent="1">
          <mxGeometry x="400" y="910" width="80" height="80" as="geometry" />
        </mxCell>
        <mxCell id="PnGkv1meoWTylXJmhazq-9" value="创建流程 \ 处理流程" style="text;html=1;align=center;verticalAlign=middle;resizable=0;points=[];autosize=1;strokeColor=none;fillColor=none;" vertex="1" parent="1">
          <mxGeometry x="220" y="890" width="130" height="30" as="geometry" />
        </mxCell>
        <mxCell id="PnGkv1meoWTylXJmhazq-11" value="状态变更（定时任务）" style="text;html=1;align=center;verticalAlign=middle;resizable=0;points=[];autosize=1;strokeColor=none;fillColor=none;" vertex="1" parent="1">
          <mxGeometry x="215" y="960" width="140" height="30" as="geometry" />
        </mxCell>
        <mxCell id="PnGkv1meoWTylXJmhazq-12" value="&lt;font style=&quot;font-size: 16px;&quot;&gt;绩效管理模块&lt;/font&gt;" style="text;html=1;align=center;verticalAlign=middle;resizable=0;points=[];autosize=1;strokeColor=none;fillColor=none;" vertex="1" parent="1">
          <mxGeometry x="70" y="1110" width="120" height="30" as="geometry" />
        </mxCell>
        <mxCell id="PnGkv1meoWTylXJmhazq-19" style="edgeStyle=orthogonalEdgeStyle;rounded=0;orthogonalLoop=1;jettySize=auto;html=1;exitX=0.5;exitY=1;exitDx=0;exitDy=0;entryX=0.5;entryY=0;entryDx=0;entryDy=0;entryPerimeter=0;" edge="1" parent="1" source="PnGkv1meoWTylXJmhazq-13" target="PnGkv1meoWTylXJmhazq-18">
          <mxGeometry relative="1" as="geometry" />
        </mxCell>
        <mxCell id="PnGkv1meoWTylXJmhazq-26" style="edgeStyle=orthogonalEdgeStyle;rounded=0;orthogonalLoop=1;jettySize=auto;html=1;exitX=1;exitY=0.25;exitDx=0;exitDy=0;entryX=0;entryY=0.25;entryDx=0;entryDy=0;" edge="1" parent="1" source="PnGkv1meoWTylXJmhazq-13" target="PnGkv1meoWTylXJmhazq-25">
          <mxGeometry relative="1" as="geometry" />
        </mxCell>
        <mxCell id="PnGkv1meoWTylXJmhazq-35" style="edgeStyle=orthogonalEdgeStyle;rounded=0;orthogonalLoop=1;jettySize=auto;html=1;exitX=0;exitY=0.5;exitDx=0;exitDy=0;entryX=0.5;entryY=1;entryDx=0;entryDy=0;" edge="1" parent="1" source="PnGkv1meoWTylXJmhazq-13" target="PnGkv1meoWTylXJmhazq-32">
          <mxGeometry relative="1" as="geometry">
            <mxPoint x="-200" y="790" as="targetPoint" />
          </mxGeometry>
        </mxCell>
        <mxCell id="PnGkv1meoWTylXJmhazq-13" value="perfcenter" style="rounded=0;whiteSpace=wrap;html=1;" vertex="1" parent="1">
          <mxGeometry x="70" y="1140" width="120" height="60" as="geometry" />
        </mxCell>
        <mxCell id="PnGkv1meoWTylXJmhazq-16" value="注册" style="text;html=1;align=center;verticalAlign=middle;resizable=0;points=[];autosize=1;strokeColor=none;fillColor=none;" vertex="1" parent="1">
          <mxGeometry x="-60" y="700" width="50" height="30" as="geometry" />
        </mxCell>
        <mxCell id="PnGkv1meoWTylXJmhazq-17" value="注册" style="text;html=1;align=center;verticalAlign=middle;resizable=0;points=[];autosize=1;strokeColor=none;fillColor=none;" vertex="1" parent="1">
          <mxGeometry x="-250" y="950" width="50" height="30" as="geometry" />
        </mxCell>
        <mxCell id="PnGkv1meoWTylXJmhazq-21" style="edgeStyle=orthogonalEdgeStyle;rounded=0;orthogonalLoop=1;jettySize=auto;html=1;exitX=1;exitY=0;exitDx=0;exitDy=27.5;exitPerimeter=0;" edge="1" parent="1" source="PnGkv1meoWTylXJmhazq-18" target="PnGkv1meoWTylXJmhazq-20">
          <mxGeometry relative="1" as="geometry" />
        </mxCell>
        <mxCell id="PnGkv1meoWTylXJmhazq-18" value="MySQL" style="shape=cylinder3;whiteSpace=wrap;html=1;boundedLbl=1;backgroundOutline=1;size=15;" vertex="1" parent="1">
          <mxGeometry x="100" y="1290" width="60" height="80" as="geometry" />
        </mxCell>
        <mxCell id="PnGkv1meoWTylXJmhazq-22" style="edgeStyle=orthogonalEdgeStyle;rounded=0;orthogonalLoop=1;jettySize=auto;html=1;exitX=0;exitY=0.75;exitDx=0;exitDy=0;entryX=1;entryY=0;entryDx=0;entryDy=52.5;entryPerimeter=0;" edge="1" parent="1" source="PnGkv1meoWTylXJmhazq-20" target="PnGkv1meoWTylXJmhazq-18">
          <mxGeometry relative="1" as="geometry" />
        </mxCell>
        <mxCell id="PnGkv1meoWTylXJmhazq-20" value="普元流程管理" style="whiteSpace=wrap;html=1;aspect=fixed;" vertex="1" parent="1">
          <mxGeometry x="404" y="1280" width="80" height="80" as="geometry" />
        </mxCell>
        <mxCell id="PnGkv1meoWTylXJmhazq-23" value="创建流程 \ 处理流程" style="text;html=1;align=center;verticalAlign=middle;resizable=0;points=[];autosize=1;strokeColor=none;fillColor=none;" vertex="1" parent="1">
          <mxGeometry x="215" y="1280" width="130" height="30" as="geometry" />
        </mxCell>
        <mxCell id="PnGkv1meoWTylXJmhazq-24" value="状态变更（定时任务）" style="text;html=1;align=center;verticalAlign=middle;resizable=0;points=[];autosize=1;strokeColor=none;fillColor=none;" vertex="1" parent="1">
          <mxGeometry x="220" y="1350" width="140" height="30" as="geometry" />
        </mxCell>
        <mxCell id="PnGkv1meoWTylXJmhazq-27" style="edgeStyle=orthogonalEdgeStyle;rounded=0;orthogonalLoop=1;jettySize=auto;html=1;exitX=0;exitY=0.75;exitDx=0;exitDy=0;entryX=1;entryY=0.75;entryDx=0;entryDy=0;" edge="1" parent="1" source="PnGkv1meoWTylXJmhazq-25" target="PnGkv1meoWTylXJmhazq-13">
          <mxGeometry relative="1" as="geometry" />
        </mxCell>
        <mxCell id="PnGkv1meoWTylXJmhazq-30" value="数据返回" style="edgeLabel;html=1;align=center;verticalAlign=middle;resizable=0;points=[];" vertex="1" connectable="0" parent="PnGkv1meoWTylXJmhazq-27">
          <mxGeometry x="-0.2074" y="2" relative="1" as="geometry">
            <mxPoint as="offset" />
          </mxGeometry>
        </mxCell>
        <mxCell id="PnGkv1meoWTylXJmhazq-25" value="WPS" style="rounded=0;whiteSpace=wrap;html=1;" vertex="1" parent="1">
          <mxGeometry x="460" y="1140" width="130" height="60" as="geometry" />
        </mxCell>
        <mxCell id="PnGkv1meoWTylXJmhazq-28" value="RPC" style="text;html=1;align=center;verticalAlign=middle;resizable=0;points=[];autosize=1;strokeColor=none;fillColor=none;" vertex="1" parent="1">
          <mxGeometry x="220" y="1120" width="50" height="30" as="geometry" />
        </mxCell>
        <mxCell id="PnGkv1meoWTylXJmhazq-29" value="在线编辑" style="text;html=1;align=center;verticalAlign=middle;resizable=0;points=[];autosize=1;strokeColor=none;fillColor=none;" vertex="1" parent="1">
          <mxGeometry x="285" y="1135" width="70" height="30" as="geometry" />
        </mxCell>
        <mxCell id="PnGkv1meoWTylXJmhazq-38" style="edgeStyle=orthogonalEdgeStyle;rounded=0;orthogonalLoop=1;jettySize=auto;html=1;exitX=1;exitY=0.5;exitDx=0;exitDy=0;entryX=0;entryY=0.5;entryDx=0;entryDy=0;" edge="1" parent="1" source="PnGkv1meoWTylXJmhazq-31" target="PnGkv1meoWTylXJmhazq-32">
          <mxGeometry relative="1" as="geometry" />
        </mxCell>
        <mxCell id="PnGkv1meoWTylXJmhazq-31" value="其他服务" style="whiteSpace=wrap;html=1;aspect=fixed;" vertex="1" parent="1">
          <mxGeometry x="-530" y="515" width="100" height="100" as="geometry" />
        </mxCell>
        <mxCell id="PnGkv1meoWTylXJmhazq-32" value="Nacos" style="rounded=1;whiteSpace=wrap;html=1;" vertex="1" parent="1">
          <mxGeometry x="-270" y="690" width="120" height="60" as="geometry" />
        </mxCell>
        <mxCell id="PnGkv1meoWTylXJmhazq-1" value="信息资源申请模块" style="text;html=1;align=center;verticalAlign=middle;resizable=0;points=[];autosize=1;strokeColor=none;fillColor=none;fontSize=16;" vertex="1" parent="1">
          <mxGeometry x="65" y="710" width="150" height="30" as="geometry" />
        </mxCell>
        <mxCell id="PnGkv1meoWTylXJmhazq-40" style="edgeStyle=orthogonalEdgeStyle;rounded=0;orthogonalLoop=1;jettySize=auto;html=1;exitX=1;exitY=0.25;exitDx=0;exitDy=0;entryX=0.25;entryY=1;entryDx=0;entryDy=0;" edge="1" parent="1" source="PnGkv1meoWTylXJmhazq-39" target="PnGkv1meoWTylXJmhazq-32">
          <mxGeometry relative="1" as="geometry" />
        </mxCell>
        <mxCell id="PnGkv1meoWTylXJmhazq-39" value="Gateway" style="rounded=1;whiteSpace=wrap;html=1;" vertex="1" parent="1">
          <mxGeometry x="-570" y="810" width="120" height="60" as="geometry" />
        </mxCell>
      </root>
    </mxGraphModel>
  </diagram>
</mxfile>
